<mxfile host="app.diagrams.net" agent="Mozilla/5.0 (Windows NT 10.0; Win64; x64) AppleWebKit/537.36 (KHTML, like Gecko) Chrome/139.0.0.0 Safari/537.36 Edg/139.0.0.0" version="28.0.9">
  <diagram name="Page-1" id="MkDuvUE-qkH43eh18S8C">
    <mxGraphModel dx="1692" dy="1309" grid="1" gridSize="10" guides="0" tooltips="1" connect="1" arrows="1" fold="1" page="1" pageScale="1" pageWidth="400" pageHeight="400" math="0" shadow="0">
      <root>
        <mxCell id="0" />
        <mxCell id="1" parent="0" />
        <mxCell id="WHrjuiHPysCio-dXE_0d-58" value="" style="rounded=0;whiteSpace=wrap;html=1;strokeColor=none;fillColor=#616882;" vertex="1" parent="1">
          <mxGeometry x="-10" y="-10" width="420" height="420" as="geometry" />
        </mxCell>
        <mxCell id="L2FVpZfAekpMsSmZwNJy-1" value="Redliner" style="text;html=1;align=left;verticalAlign=middle;whiteSpace=wrap;rounded=0;fontStyle=1;fontSize=80;fontFamily=Georgia;fontColor=#000000;spacingLeft=10;strokeColor=none;rotation=-45;" parent="1" vertex="1">
          <mxGeometry x="-200" y="-30" width="376" height="70" as="geometry" />
        </mxCell>
        <mxCell id="WHrjuiHPysCio-dXE_0d-43" value="Redliner" style="text;html=1;align=left;verticalAlign=middle;whiteSpace=wrap;rounded=0;fontStyle=1;fontSize=80;fontFamily=Georgia;fontColor=#000000;spacingLeft=10;strokeColor=none;rotation=-45;" vertex="1" parent="1">
          <mxGeometry x="200.0048122046001" y="370.0048122046001" width="376" height="70" as="geometry" />
        </mxCell>
        <mxCell id="WHrjuiHPysCio-dXE_0d-54" value="Redliner" style="text;html=1;align=left;verticalAlign=middle;whiteSpace=wrap;rounded=0;fontStyle=1;fontSize=80;fontFamily=Georgia;fontColor=#000000;spacingLeft=10;strokeColor=none;rotation=-45;" vertex="1" parent="1">
          <mxGeometry x="-199.9951877953999" y="370.0048122046001" width="376" height="70" as="geometry" />
        </mxCell>
        <mxCell id="WHrjuiHPysCio-dXE_0d-55" value="Redliner" style="text;html=1;align=left;verticalAlign=middle;whiteSpace=wrap;rounded=0;fontStyle=1;fontSize=80;fontFamily=Georgia;fontColor=#000000;spacingLeft=10;strokeColor=none;rotation=-45;" vertex="1" parent="1">
          <mxGeometry x="200.0048122046001" y="-29.995187795399886" width="376" height="70" as="geometry" />
        </mxCell>
        <mxCell id="WHrjuiHPysCio-dXE_0d-56" value="" style="endArrow=none;html=1;rounded=0;strokeWidth=8;" edge="1" parent="1">
          <mxGeometry width="50" height="50" relative="1" as="geometry">
            <mxPoint x="-10" y="210" as="sourcePoint" />
            <mxPoint x="210" y="-10" as="targetPoint" />
          </mxGeometry>
        </mxCell>
        <mxCell id="WHrjuiHPysCio-dXE_0d-57" value="" style="endArrow=none;html=1;rounded=0;strokeWidth=8;" edge="1" parent="1">
          <mxGeometry width="50" height="50" relative="1" as="geometry">
            <mxPoint x="190" y="410" as="sourcePoint" />
            <mxPoint x="410" y="190" as="targetPoint" />
          </mxGeometry>
        </mxCell>
        <mxCell id="WHrjuiHPysCio-dXE_0d-59" value="Red" style="text;html=1;align=left;verticalAlign=middle;whiteSpace=wrap;rounded=0;fontStyle=1;fontSize=80;fontFamily=Georgia;fontColor=#CCCCCC;spacingLeft=10;strokeColor=none;rotation=-45;" vertex="1" parent="1">
          <mxGeometry x="200.0048122046001" y="-29.99518779539997" width="376" height="70" as="geometry" />
        </mxCell>
        <mxCell id="WHrjuiHPysCio-dXE_0d-60" value="Red" style="text;html=1;align=left;verticalAlign=middle;whiteSpace=wrap;rounded=0;fontStyle=1;fontSize=80;fontFamily=Georgia;fontColor=#CCCCCC;spacingLeft=10;strokeColor=none;rotation=-45;" vertex="1" parent="1">
          <mxGeometry x="200.0048122046001" y="370.00481220460006" width="376" height="70" as="geometry" />
        </mxCell>
        <mxCell id="WHrjuiHPysCio-dXE_0d-61" value="Red" style="text;html=1;align=left;verticalAlign=middle;whiteSpace=wrap;rounded=0;fontStyle=1;fontSize=80;fontFamily=Georgia;fontColor=#CCCCCC;spacingLeft=10;strokeColor=none;rotation=-45;" vertex="1" parent="1">
          <mxGeometry x="-199.99518779539983" y="370.0048122046001" width="376" height="70" as="geometry" />
        </mxCell>
        <mxCell id="WHrjuiHPysCio-dXE_0d-62" value="Red" style="text;html=1;align=left;verticalAlign=middle;whiteSpace=wrap;rounded=0;fontStyle=1;fontSize=80;fontFamily=Georgia;fontColor=#CCCCCC;spacingLeft=10;strokeColor=none;rotation=-45;" vertex="1" parent="1">
          <mxGeometry x="-199.99518779539983" y="-29.99518779539983" width="376" height="70" as="geometry" />
        </mxCell>
      </root>
    </mxGraphModel>
  </diagram>
</mxfile>
